<svg version="1.1" xmlns="http://www.w3.org/2000/svg" viewBox="0 0 1152.0780742771294 1021.0338112723967" width="1152.0780742771294" height="1021.0338112723967">
  <!-- svg-source:excalidraw -->
  
  <defs>
    <style>
      @font-face {
        font-family: "Virgil";
        src: url("https://excalidraw.com/Virgil.woff2");
      }
      @font-face {
        font-family: "Cascadia";
        src: url("https://excalidraw.com/Cascadia.woff2");
      }
    </style>
  </defs>
  <rect x="0" y="0" width="1152.0780742771294" height="1021.0338112723967" fill="#ffffff"></rect><g stroke-linecap="round" transform="translate(640.3732998270772 411.2248023469674) rotate(0 155.5 233)"><path d="M-1.08 1.36 C122.78 -2.45, 242.24 -1.7, 311.65 -0.44 M-0.04 0.18 C92.11 -0.11, 183.95 -0.86, 311.14 -0.06 M311.34 -0.11 C311 135.12, 311.3 271.73, 311.27 465.64 M310.96 0.34 C313.1 154.45, 312.74 309.38, 311.29 465.78 M310.22 464.81 C214.27 467.93, 119.55 468.52, -0.79 465.53 M311 465.54 C224.48 465.38, 137.79 464.84, 0.19 466.13 M0.19 466.63 C-0.5 343.17, -1.09 219.05, 0.17 0.66 M0.21 466.41 C-1.48 299.37, -1.5 132.52, 0.24 0.12" stroke="#000000" stroke-width="1" fill="none"></path></g><g stroke-linecap="round"><g transform="translate(792.3732998270772 331.2248023469674) rotate(0 -0.20233087109784265 305.8266072604805)"><path d="M-0.22 0.52 C-0.08 102.53, -0.32 509.18, -0.2 611.13" stroke="#000000" stroke-width="1.5" fill="none" stroke-dasharray="1.5 7"></path></g></g><g stroke-linecap="round"><g transform="translate(558.2037479777119 645.2248023469674) rotate(0 259.8532542917877 0.06439233475788342)"><path d="M-0.7 -0.07 C86 -0.03, 433.57 0.33, 520.41 0.15" stroke="#000000" stroke-width="1.5" fill="none" stroke-dasharray="1.5 7"></path></g></g><g stroke-linecap="round"><g transform="translate(868.2037479777119 330.2248023469674) rotate(0 -0.29243874657652214 306.0471756663173)"><path d="M-0.88 0.14 C-0.96 102.02, 0.29 509.81, 0.29 611.95" stroke="#000000" stroke-width="1.5" fill="none" stroke-dasharray="1.5 7"></path></g></g><g stroke-linecap="round"><g transform="translate(710.2037479777119 336.2248023469674) rotate(0 -0.6120553527027823 302.67606968618935)"><path d="M-0.43 0.78 C-0.69 101.62, -0.79 504.01, -0.8 604.57" stroke="#000000" stroke-width="1.5" fill="none" stroke-dasharray="1.5 7"></path></g></g><g stroke-linecap="round"><g transform="translate(563.2037479777119 774.2248023469674) rotate(0 259.1331837389618 -0.8041960765673366)"><path d="M0.75 -0.79 C86.81 -0.83, 431.31 -0.84, 517.52 -0.78" stroke="#000000" stroke-width="1.5" fill="none" stroke-dasharray="1.5 7"></path></g></g><g stroke-linecap="round"><g transform="translate(554.2037479777119 525.2248023469674) rotate(0 264.3801833953708 0.3347220945111644)"><path d="M0.32 0.58 C88.38 0.63, 440.14 0.16, 528.44 0.09" stroke="#000000" stroke-width="1.5" fill="none" stroke-dasharray="1.5 7"></path></g></g><g stroke-linecap="round" transform="translate(694.2037479777119 508.2248023469674) rotate(0 15 15)"><path d="M2.17 7.19 C2.17 7.19, 2.17 7.19, 2.17 7.19 M2.17 7.19 C2.17 7.19, 2.17 7.19, 2.17 7.19 M-0.36 14.51 C1.7 12.32, 5.08 10.84, 10.61 3.51 M0.49 15.65 C4.13 9.92, 9.44 5.53, 11.38 3.07 M4.12 19.32 C6.12 13.85, 13.47 7.96, 17.18 3.62 M2.07 18.4 C5.67 15.14, 9.79 10.69, 17.37 1.8 M2.91 21.99 C10.85 16.25, 16.83 10.74, 21.16 4.14 M5.36 23.43 C9.04 18.28, 14.09 12.03, 21.91 2.74 M4.7 26.69 C11.4 20.63, 14.22 17.61, 23.73 6.84 M7.09 27.1 C10.2 20.97, 14.79 16.03, 24.45 4.93 M10.55 30.1 C15.5 23.33, 22.21 15, 28.95 7.59 M9.4 28.85 C16.37 20.89, 22.17 14.75, 28.09 9.22 M13.23 32 C18.98 26.97, 20.68 20.72, 29.15 9.83 M12.8 31.09 C20.84 22.11, 26.21 15.84, 31.52 11.7 M21.06 27.19 C23.83 24.72, 27.39 20.99, 32.23 17.42 M20.51 28.9 C23.35 25.59, 25.07 23.03, 31.75 15.97" stroke="#000000" stroke-width="0.5" fill="none"></path><path d="M21.31 1.64 C23.96 2.81, 26.88 5.96, 28.35 8.82 C29.83 11.68, 31.08 15.73, 30.17 18.8 C29.27 21.86, 25.82 25.41, 22.92 27.2 C20.01 28.98, 15.88 29.9, 12.75 29.5 C9.61 29.09, 6.2 26.82, 4.1 24.77 C2.01 22.72, 0.45 20.15, 0.17 17.18 C-0.11 14.2, 0.73 9.6, 2.41 6.92 C4.08 4.25, 6.99 1.97, 10.2 1.13 C13.42 0.29, 19.6 1.74, 21.71 1.88 C23.82 2.01, 22.79 1.61, 22.88 1.93 M20.87 0.6 C24.06 1.18, 27.39 3.38, 28.94 6.15 C30.5 8.92, 31.03 13.61, 30.21 17.22 C29.39 20.84, 26.45 25.74, 24.02 27.83 C21.59 29.91, 18.89 30.07, 15.63 29.74 C12.37 29.4, 7.09 27.99, 4.46 25.83 C1.83 23.67, 0.21 19.64, -0.17 16.77 C-0.55 13.9, 0.35 11.45, 2.2 8.61 C4.05 5.77, 7.96 0.83, 10.92 -0.25 C13.88 -1.34, 18.35 1.85, 19.95 2.1 C21.55 2.36, 20.61 1.27, 20.5 1.27" stroke="#000000" stroke-width="1" fill="none"></path></g><g stroke-linecap="round" transform="translate(853.2037479777119 512.2248023469674) rotate(0 15 15)"><path d="M1.12 7.6 C1.12 7.6, 1.12 7.6, 1.12 7.6 M1.12 7.6 C1.12 7.6, 1.12 7.6, 1.12 7.6 M-0.14 15.39 C3.19 11.24, 4.39 8.68, 11.18 2.37 M-0.29 14.78 C3.5 11.08, 6.04 8.48, 11.53 2.1 M2.56 17.34 C6.83 12.06, 11.96 5.17, 18.16 1.69 M1.28 18.55 C6.35 14.95, 9.5 9.56, 15.42 3.02 M5.9 23.57 C7.72 19.18, 10.77 15.66, 22.23 4.01 M4.63 21.5 C10.29 14.96, 16.59 8.9, 20.73 1.82 M7.15 25.63 C12.33 18.53, 22.19 9.41, 22.83 6.97 M6.63 25.8 C10.22 21.65, 13.79 17.23, 24.67 4.89 M10.9 27.92 C16 22.38, 25.19 13.29, 27.06 7.18 M8.21 29.62 C15.44 22.14, 22.69 14.13, 28.62 6.24 M13.24 30.4 C19.55 24.73, 23.81 20.21, 28.1 10.38 M12.67 31.05 C17.65 23.9, 22.98 18.19, 29.71 12.11 M17.55 28.85 C21.67 26.51, 24.01 25.98, 31.76 17.85 M18.39 30.62 C21.8 27.68, 24.18 24.43, 29.72 16.87" stroke="#000000" stroke-width="0.5" fill="none"></path><path d="M19.96 1.26 C22.84 2.17, 25.64 4.39, 27.35 7.01 C29.06 9.62, 30.56 13.79, 30.23 16.95 C29.9 20.11, 27.72 23.95, 25.37 25.97 C23.01 28, 19.3 28.92, 16.11 29.08 C12.91 29.25, 8.95 28.91, 6.19 26.94 C3.43 24.97, 0.39 20.48, -0.46 17.27 C-1.32 14.05, -0.58 10.49, 1.07 7.66 C2.72 4.83, 6.03 1.28, 9.43 0.28 C12.83 -0.72, 19.34 1.33, 21.47 1.68 C23.6 2.04, 22.23 2.26, 22.2 2.4 M21.33 0.54 C24.3 1.36, 27.56 4.35, 28.84 7.09 C30.12 9.82, 29.7 13.66, 29.02 16.95 C28.33 20.25, 27.32 24.73, 24.73 26.85 C22.15 28.96, 16.76 29.67, 13.53 29.66 C10.29 29.65, 7.29 28.94, 5.31 26.76 C3.33 24.59, 1.94 19.85, 1.65 16.58 C1.36 13.31, 2.2 9.58, 3.56 7.14 C4.92 4.7, 6.87 2.77, 9.82 1.93 C12.77 1.1, 19.71 2.2, 21.27 2.12 C22.83 2.04, 19.62 1.53, 19.19 1.45" stroke="#000000" stroke-width="1" fill="none"></path></g><g stroke-linecap="round" transform="translate(777.2037479777119 629.2248023469674) rotate(0 15 15)"><path d="M2.15 7.17 C2.15 7.17, 2.15 7.17, 2.15 7.17 M2.15 7.17 C2.15 7.17, 2.15 7.17, 2.15 7.17 M-0.99 16.32 C4.68 9.55, 6.93 6.58, 10.52 1.75 M1.09 15.1 C4.44 9.83, 10.05 5.36, 11.99 1.55 M2.33 19.74 C7.31 16.6, 8.31 13.19, 15.91 4.45 M3.09 17.61 C7.94 12.13, 12.1 7.2, 16.5 3.56 M2.78 22.4 C9.59 17.54, 12.09 13.27, 24.26 1.46 M5.3 23.11 C8.43 18.32, 12.17 14.25, 21.73 3.01 M4.25 26.3 C14.23 18.69, 18.41 13.91, 26.82 5.78 M6.05 27.24 C9.86 22.27, 15.37 16.82, 25.66 5.42 M11.56 30.36 C16.74 21.29, 25.34 13.27, 30.14 7.89 M10.8 28.92 C14.15 24.14, 18.64 17.77, 27.68 7.65 M13.98 31.45 C19.69 20.89, 27.69 14.45, 32.2 11.53 M14.07 30.61 C21.01 22.32, 28.54 14.8, 32.15 10.07 M22.89 27.48 C25.27 23.55, 26.62 21.92, 33.12 14.16 M20.79 27.76 C24.17 24.58, 25.67 22.44, 31.5 15.96" stroke="#000000" stroke-width="0.5" fill="none"></path><path d="M10.08 1.1 C12.97 -0.18, 17.9 -0.35, 21.02 0.78 C24.14 1.91, 27.36 4.95, 28.81 7.88 C30.26 10.81, 30.47 15.16, 29.7 18.35 C28.93 21.55, 26.75 25.18, 24.2 27.05 C21.64 28.91, 17.64 29.61, 14.37 29.54 C11.1 29.47, 6.93 28.77, 4.58 26.62 C2.24 24.48, 0.75 19.88, 0.3 16.69 C-0.16 13.5, -0.07 10.05, 1.86 7.5 C3.8 4.95, 10.11 2.4, 11.93 1.38 C13.75 0.35, 12.8 1.29, 12.8 1.32 M19.41 1.22 C21.98 1.86, 25.07 4.38, 26.99 7.13 C28.91 9.88, 31.32 14.68, 30.92 17.72 C30.51 20.77, 27.16 23.21, 24.58 25.39 C22 27.57, 18.92 30.84, 15.45 30.82 C11.98 30.81, 6.2 27.4, 3.75 25.3 C1.3 23.21, 0.78 21.17, 0.74 18.25 C0.7 15.33, 1.74 10.89, 3.5 7.77 C5.26 4.65, 8.4 0.83, 11.3 -0.49 C14.2 -1.81, 19.45 -0.53, 20.89 -0.16 C22.32 0.22, 20.19 1.15, 19.92 1.75" stroke="#000000" stroke-width="1" fill="none"></path></g><g stroke-linecap="round" transform="translate(693.2037479777119 758.2248023469674) rotate(0 15 15)"><path d="M2.57 6.21 C2.57 6.21, 2.57 6.21, 2.57 6.21 M2.57 6.21 C2.57 6.21, 2.57 6.21, 2.57 6.21 M2.38 15.23 C3.21 12.34, 5.08 10.16, 12.92 2.45 M1.3 13.47 C4.89 9.3, 9.01 5.57, 11.64 0.59 M3.83 17.49 C6.87 12.9, 14.17 6.5, 13.8 5.45 M3.35 17.64 C5.7 14.98, 7.98 12.08, 15.46 3.57 M6.32 21.28 C10.13 17.17, 18.06 9.53, 19.19 4.32 M3.62 22.98 C9.71 16.84, 15.79 10.16, 20.75 3.37 M5.38 27.54 C12.76 20.55, 18.13 14.75, 24.17 2.98 M4.8 28.18 C11.06 19.51, 17.7 12.29, 25.78 4.72 M8.28 27.31 C14.12 23.23, 17.96 21.22, 29.98 8.3 M9.22 29.28 C14.32 24.47, 18.26 19.37, 27.71 7.21 M15.07 28.89 C19.94 22.98, 28.36 12.85, 29.82 10.91 M14.07 29.73 C18.39 24.41, 23.91 18.25, 30.32 9.29 M19.45 30.62 C25.47 24.35, 29.94 19.23, 31.12 15.31 M19.34 29.74 C23.74 23.53, 27.84 19.46, 32.45 15.54" stroke="#000000" stroke-width="0.5" fill="none"></path><path d="M22.43 2.11 C25.38 3.21, 28.3 5.51, 29.47 8.23 C30.65 10.94, 30.61 15.07, 29.49 18.42 C28.38 21.76, 25.52 26.36, 22.79 28.31 C20.06 30.26, 16.37 30.5, 13.11 30.1 C9.85 29.71, 5.3 28.45, 3.21 25.95 C1.12 23.45, 0.73 18.35, 0.58 15.1 C0.44 11.86, 0.39 8.8, 2.33 6.49 C4.27 4.18, 8.65 1.82, 12.2 1.26 C15.76 0.7, 21.76 2.67, 23.66 3.12 C25.57 3.57, 23.98 3.93, 23.63 3.97 M17.39 1.61 C20.32 1.42, 22.75 1.38, 24.62 3.46 C26.48 5.55, 28.08 10.57, 28.55 14.12 C29.02 17.67, 29.3 22.21, 27.42 24.74 C25.53 27.27, 20.63 28.74, 17.24 29.3 C13.85 29.87, 9.71 29.69, 7.08 28.11 C4.46 26.54, 2.82 22.6, 1.51 19.86 C0.21 17.12, -1.51 14.6, -0.74 11.69 C0.03 8.77, 3.05 4.41, 6.14 2.36 C9.22 0.31, 15.91 -0.32, 17.79 -0.6 C19.66 -0.88, 17.5 0.26, 17.39 0.68" stroke="#000000" stroke-width="1" fill="none"></path></g><g stroke-linecap="round" transform="translate(853.2037479777119 758.2248023469674) rotate(0 15 15)"><path d="M3.39 5.6 C3.39 5.6, 3.39 5.6, 3.39 5.6 M3.39 5.6 C3.39 5.6, 3.39 5.6, 3.39 5.6 M1.16 16.81 C2.64 12.81, 5.12 10.42, 11.71 2.27 M-0.87 15.18 C5.22 10.1, 8.4 6.46, 13.7 1.15 M2.27 19.44 C3.94 16.45, 9.03 12.38, 17.86 2.96 M2.33 20.79 C7.34 13.55, 14 6.83, 18.17 2 M4.15 25.45 C6.41 20.86, 11.09 13.07, 20.86 2.53 M2.42 25.66 C9.32 15.82, 17.37 7.93, 22.69 2.87 M4.39 29.98 C12.71 19.77, 22.14 11.22, 26.12 5.49 M5.96 27.97 C10.79 21.57, 14.97 16.71, 25.47 4.55 M7.99 29.17 C14.67 23.33, 16.59 20.08, 26.89 8.74 M9.93 29.28 C13.17 25.46, 17.96 20.37, 28.33 8.47 M12.04 28.56 C17.39 26.33, 22.31 17.61, 29.78 10.51 M12.96 31.12 C19.87 23.47, 27.09 14.63, 31.56 10.81 M20.3 28.67 C21.93 26.22, 22.81 22.87, 30.21 16.13 M19.42 29.41 C23.14 25.13, 27.34 21.56, 29.91 17.85" stroke="#000000" stroke-width="0.5" fill="none"></path><path d="M21.12 1.57 C24.13 3.07, 28.05 6.81, 29.3 9.79 C30.55 12.76, 29.8 16.46, 28.63 19.44 C27.47 22.41, 24.88 25.99, 22.3 27.64 C19.72 29.28, 16.38 29.61, 13.14 29.31 C9.9 29.01, 5.14 28.15, 2.86 25.85 C0.57 23.56, -0.71 18.95, -0.57 15.52 C-0.43 12.08, 1.58 7.75, 3.71 5.24 C5.83 2.74, 8.66 0.73, 12.18 0.48 C15.71 0.23, 22.31 2.97, 24.86 3.73 C27.41 4.49, 27.58 4.81, 27.51 5.02 M8.27 0.67 C11.37 -0.71, 17.84 -0.93, 20.96 0.28 C24.09 1.49, 25.55 5.28, 27.04 7.92 C28.53 10.55, 30.31 12.86, 29.9 16.1 C29.49 19.35, 26.88 24.99, 24.57 27.38 C22.26 29.77, 19.37 30.76, 16.03 30.44 C12.7 30.12, 6.99 27.72, 4.56 25.46 C2.13 23.19, 1.99 19.59, 1.45 16.84 C0.9 14.09, -0.24 11.42, 1.28 8.96 C2.8 6.5, 9.23 3.2, 10.57 2.09 C11.9 0.98, 9.49 1.98, 9.28 2.28" stroke="#000000" stroke-width="1" fill="none"></path></g><g transform="translate(52.731328909623926 235.25893865347038) rotate(0 171.5 62.5)"><text x="0" y="18" font-family="Virgil, Segoe UI Emoji" font-size="20px" fill="#000000" text-anchor="start" style="white-space: pre;" direction="ltr">Black circle represent</text><text x="0" y="43" font-family="Virgil, Segoe UI Emoji" font-size="20px" fill="#000000" text-anchor="start" style="white-space: pre;" direction="ltr">the correct point coordinates,</text><text x="0" y="68" font-family="Virgil, Segoe UI Emoji" font-size="20px" fill="#000000" text-anchor="start" style="white-space: pre;" direction="ltr">which are presented on the screen,</text><text x="0" y="93" font-family="Virgil, Segoe UI Emoji" font-size="20px" fill="#000000" text-anchor="start" style="white-space: pre;" direction="ltr">and red circle represent the touch</text><text x="0" y="118" font-family="Virgil, Segoe UI Emoji" font-size="20px" fill="#000000" text-anchor="start" style="white-space: pre;" direction="ltr">coordinates.</text></g><g transform="translate(333.5207525437987 10) rotate(0 153.5 22.5)"><text x="0" y="32" font-family="Virgil, Segoe UI Emoji" font-size="36px" fill="#000000" text-anchor="start" style="white-space: pre;" direction="ltr">Touch calibration</text></g><g transform="translate(507.20374797771194 515.2248023469674) rotate(0 19 10)"><text x="0" y="14" font-family="Virgil, Segoe UI Emoji" font-size="16px" fill="#000000" text-anchor="start" style="white-space: pre;" direction="ltr">25%</text></g><g transform="translate(692.2037479777119 305.2248023469674) rotate(0 19 10)"><text x="0" y="14" font-family="Virgil, Segoe UI Emoji" font-size="16px" fill="#000000" text-anchor="start" style="white-space: pre;" direction="ltr">25%</text></g><g transform="translate(775.2037479777119 305.2248023469674) rotate(0 19 10)"><text x="0" y="14" font-family="Virgil, Segoe UI Emoji" font-size="16px" fill="#000000" text-anchor="start" style="white-space: pre;" direction="ltr">50%</text></g><g transform="translate(852.2037479777119 305.2248023469674) rotate(0 18 10)"><text x="0" y="14" font-family="Virgil, Segoe UI Emoji" font-size="16px" fill="#000000" text-anchor="start" style="white-space: pre;" direction="ltr">75%</text></g><g transform="translate(511.20374797771194 632.2248023469674) rotate(0 19 10)"><text x="0" y="14" font-family="Virgil, Segoe UI Emoji" font-size="16px" fill="#000000" text-anchor="start" style="white-space: pre;" direction="ltr">50%</text></g><g transform="translate(517.2037479777119 762.2248023469674) rotate(0 18 10)"><text x="0" y="14" font-family="Virgil, Segoe UI Emoji" font-size="16px" fill="#000000" text-anchor="start" style="white-space: pre;" direction="ltr">75%</text></g><g stroke-linecap="round"><g transform="translate(624.2037479777119 395.2248023469674) rotate(0 -0.3940398123329487 46.872422323003406)"><path d="M0.53 -0.69 C0.64 14.94, -0.23 78.62, -0.24 94.44 M-0.66 1.56 C-0.64 16.77, -1.41 76.86, -1.32 92.54" stroke="#000000" stroke-width="1" fill="none"></path></g><g transform="translate(624.2037479777119 395.2248023469674) rotate(0 -0.3940398123329487 46.872422323003406)"><path d="M-12.61 63.9 C-8.31 71.32, -6.42 78.31, -3.31 93.49 M-12.36 64.14 C-9.31 73.7, -5.94 82.39, -1.8 92.26" stroke="#000000" stroke-width="1" fill="none"></path></g><g transform="translate(624.2037479777119 395.2248023469674) rotate(0 -0.3940398123329487 46.872422323003406)"><path d="M7.91 63.99 C7.62 71.48, 4.91 78.45, -3.31 93.49 M8.16 64.23 C4.61 73.62, 1.37 82.28, -1.8 92.26" stroke="#000000" stroke-width="1" fill="none"></path></g></g><g stroke-linecap="round"><g transform="translate(626.2037479777119 394.2248023469674) rotate(0 52.44301478527484 -0.2623718426004018)"><path d="M-0.84 0.05 C16.61 0, 87.91 -0.6, 105.72 -0.71 M0.93 -0.97 C18.18 -0.85, 87.67 0.23, 105.15 0.45" stroke="#000000" stroke-width="1" fill="none"></path></g><g transform="translate(626.2037479777119 394.2248023469674) rotate(0 52.44301478527484 -0.2623718426004018)"><path d="M76.9 11.51 C86.66 8.4, 97.79 4, 106.89 -1.02 M76.07 11.31 C85.51 8.46, 94.89 4.2, 105.17 -0.22" stroke="#000000" stroke-width="1" fill="none"></path></g><g transform="translate(626.2037479777119 394.2248023469674) rotate(0 52.44301478527484 -0.2623718426004018)"><path d="M77.19 -9 C86.77 -4.16, 97.78 -0.59, 106.89 -1.02 M76.36 -9.21 C85.51 -5.82, 94.81 -3.84, 105.17 -0.22" stroke="#000000" stroke-width="1" fill="none"></path></g></g><g transform="translate(598.2037479777119 424.2248023469674) rotate(0 5 10)"><text x="0" y="14" font-family="Virgil, Segoe UI Emoji" font-size="16px" fill="#000000" text-anchor="start" style="white-space: pre;" direction="ltr">y</text></g><g transform="translate(659.2037479777119 370.2248023469674) rotate(0 5.5 10)"><text x="0" y="14" font-family="Virgil, Segoe UI Emoji" font-size="16px" fill="#000000" text-anchor="start" style="white-space: pre;" direction="ltr">x</text></g><g stroke-linecap="round" transform="translate(43.33763806187028 408.5029361208151) rotate(0 155.5 233)"><path d="M0.45 0.4 C105.79 2.15, 210.3 1.75, 310.35 -0.11 M0.06 0.48 C102.34 -2.16, 203.85 -1.83, 311.48 -0.16 M311.05 0.21 C312.6 111.86, 312.87 224.56, 311.78 465.25 M310.79 0.11 C309.37 128.69, 309.83 257.01, 311 466.05 M310.59 465.91 C247.05 465.79, 180.44 464.98, -1.09 467.37 M311.2 466.2 C196.93 467.47, 83.97 467.73, 0.71 465.47 M-0.03 465.84 C-2.41 366.86, -2.57 266.37, 0.22 -0.58 M0.41 465.63 C0.36 330.5, 0.14 195.57, 0.07 -0.24" stroke="#000000" stroke-width="1" fill="none"></path></g><g stroke-linecap="round" transform="translate(189.83763806187028 631.5029361208151) rotate(0 15 15)"><path d="M4.4 5.15 C4.4 5.15, 4.4 5.15, 4.4 5.15 M4.4 5.15 C4.4 5.15, 4.4 5.15, 4.4 5.15 M0.57 17.73 C5.47 13.56, 5.93 6.81, 15.6 0.1 M1.07 15.46 C5.51 10.82, 11.73 3.7, 14.93 -0.67 M2.51 19.77 C6.51 12.33, 14.74 7.95, 16.8 1.21 M3.06 18.99 C8.99 13.28, 13.76 7.31, 17.83 0.38 M6.15 24.82 C11.93 16.55, 17.98 8.31, 21.44 5.16 M4.49 23.63 C10.04 16.01, 16.35 9.92, 22.55 4.1 M5.09 26.68 C14.38 20.3, 23.11 11.16, 23.85 6.51 M7.11 27.95 C11.7 21.75, 15.76 16.5, 26.47 4.55 M8.11 29.28 C14.4 22.69, 21.6 12.63, 27.43 9.18 M8.69 29.79 C15.5 22.52, 20.49 16.87, 28.57 9.14 M12.55 30.2 C15.04 29.24, 18.57 22.63, 31.35 12.11 M13.86 30.89 C18.52 26.41, 21.74 19.65, 30.52 12.38 M22.71 26.6 C26.75 22.39, 29.44 19.38, 32.01 17.16 M22.81 26.79 C24.88 24.46, 27.43 20.9, 30.41 16.99" stroke="#000000" stroke-width="0.5" fill="none"></path><path d="M13.5 -0.41 C16.39 -0.98, 20.45 1.17, 22.94 2.97 C25.43 4.78, 27.31 7.59, 28.42 10.4 C29.54 13.21, 30.65 17.06, 29.62 19.85 C28.59 22.64, 25.25 25.44, 22.25 27.13 C19.26 28.82, 14.72 30.38, 11.66 29.99 C8.61 29.6, 6 27.33, 3.91 24.76 C1.83 22.19, -0.91 17.85, -0.83 14.58 C-0.75 11.32, 1.9 7.53, 4.38 5.17 C6.86 2.8, 12.15 1.22, 14.04 0.4 C15.93 -0.41, 15.81 -0.02, 15.74 0.27 M11.66 -0.28 C14.25 -1.45, 17.65 -0.17, 20.39 1.11 C23.12 2.39, 26.33 4.76, 28.08 7.39 C29.83 10.03, 31.51 13.67, 30.89 16.91 C30.27 20.14, 27.16 24.84, 24.37 26.82 C21.58 28.8, 17.27 28.8, 14.13 28.78 C10.99 28.76, 7.9 28.85, 5.52 26.69 C3.13 24.53, 0.56 19.12, -0.18 15.8 C-0.92 12.49, -0.68 9.07, 1.07 6.78 C2.82 4.48, 8.86 3.1, 10.32 2.06 C11.78 1.02, 9.62 0.54, 9.83 0.55" stroke="#000000" stroke-width="1" fill="none"></path></g><g stroke-linecap="round" transform="translate(241.83763806187028 570.5029361208151) rotate(0 15 15)"><path d="M1.02 8.84 C1.02 8.84, 1.02 8.84, 1.02 8.84 M1.02 8.84 C1.02 8.84, 1.02 8.84, 1.02 8.84 M0.53 16.73 C1.53 13.48, 5.78 10.3, 13 2.45 M0.94 14.78 C2.94 12.62, 4.44 10.51, 11.52 1.78 M1.83 20.25 C7.87 13.61, 10.62 9.67, 20.12 1.91 M2.41 19.29 C6.84 14.27, 11.69 8.63, 19.43 -0.04 M3.15 21.99 C7.99 17.86, 12.79 11.61, 23.02 3.45 M4.25 22.54 C10.64 16.92, 17.2 8.09, 21.54 2.47 M4.86 28.4 C10.58 20.28, 16.74 14.31, 25.16 5.62 M6.52 26.74 C10.95 20.83, 17.14 16.34, 26.52 4.12 M10.75 26.16 C14.09 23.6, 19.27 19.43, 28.44 8.55 M11.16 27.91 C15.94 22.29, 22.1 14.79, 28.06 8.34 M15.71 30.76 C20.53 26.83, 20.27 21.89, 28.25 13.25 M15.76 29.54 C19.58 23.2, 25.74 17.92, 28.79 12.73 M19.81 30.61 C22.12 26.23, 28.21 20.53, 31.55 17.83 M18.89 31.03 C21.88 26.98, 25.91 24.22, 30.55 16.8" stroke="#ff0000" stroke-width="0.5" fill="none"></path><path d="M9.71 0.59 C12.34 -0.64, 15.62 -0.62, 18.68 0.44 C21.74 1.49, 26.08 4.09, 28.07 6.92 C30.07 9.75, 31.32 14.17, 30.66 17.4 C29.99 20.64, 26.49 24.4, 24.09 26.34 C21.69 28.29, 19.25 29.06, 16.27 29.06 C13.29 29.06, 8.78 28.04, 6.22 26.33 C3.65 24.62, 1.76 21.71, 0.88 18.81 C0 15.92, -0.85 12.13, 0.92 8.96 C2.68 5.8, 9.13 1.42, 11.49 -0.17 C13.84 -1.76, 14.68 -0.72, 15.04 -0.58 M12.8 0.95 C15.93 0.47, 21.96 1.45, 24.57 3.2 C27.19 4.94, 27.63 8.73, 28.48 11.44 C29.33 14.14, 30.96 16.55, 29.66 19.41 C28.37 22.26, 23.58 26.68, 20.72 28.56 C17.86 30.43, 15.62 31.37, 12.48 30.65 C9.34 29.94, 3.85 27.14, 1.86 24.27 C-0.12 21.41, -0.05 16.95, 0.55 13.46 C1.16 9.97, 3.23 5.69, 5.49 3.33 C7.74 0.98, 12.58 -0.1, 14.09 -0.65 C15.61 -1.2, 14.66 -0.29, 14.59 0.05" stroke="#ff0000" stroke-width="1" fill="none"></path></g><g transform="translate(272.8376380618703 553.5029361208151) rotate(0 30.5 10)"><text x="0" y="14" font-family="Virgil, Segoe UI Emoji" font-size="16px" fill="#ff0000" text-anchor="start" style="white-space: pre;" direction="ltr">(xt, yt)</text></g><g transform="translate(232.83763806187028 626.5029361208151) rotate(0 29.5 10)"><text x="0" y="14" font-family="Virgil, Segoe UI Emoji" font-size="16px" fill="#000000" text-anchor="start" style="white-space: pre;" direction="ltr">(xc, yc)</text></g><g transform="translate(10 911.0338112723967) rotate(0 192 50)"><text x="0" y="18" font-family="Virgil, Segoe UI Emoji" font-size="20px" fill="#000000" text-anchor="start" style="white-space: pre;" direction="ltr">Idea: how to bring (xt, yt) to (xc, yc)</text><text x="0" y="43" font-family="Virgil, Segoe UI Emoji" font-size="20px" fill="#000000" text-anchor="start" style="white-space: pre;" direction="ltr">Solution: calculate point (xr, yr), where</text><text x="0" y="68" font-family="Virgil, Segoe UI Emoji" font-size="20px" fill="#000000" text-anchor="start" style="white-space: pre;" direction="ltr">xr = xt + (xc - xt) = xt + dx</text><text x="0" y="93" font-family="Virgil, Segoe UI Emoji" font-size="20px" fill="#000000" text-anchor="start" style="white-space: pre;" direction="ltr">yr = yt + (yc - yt) = yt + dy</text></g><g transform="translate(594.2037479777119 961.7248023469674) rotate(0 199.5 12.5)"><text x="0" y="18" font-family="Virgil, Segoe UI Emoji" font-size="20px" fill="#000000" text-anchor="start" style="white-space: pre;" direction="ltr">Points displayed during touch calibration</text></g><g stroke-linecap="round"><g transform="translate(250.51392509835193 589.8655367014898) rotate(0 -21.747584261119243 26.042788894195922)"><path d="M-0.64 -0.06 C-7.76 8.59, -35.83 43.49, -42.85 52.15" stroke="#0000ff" stroke-width="1.5" fill="none" stroke-dasharray="8 9"></path></g><g transform="translate(250.51392509835193 589.8655367014898) rotate(0 -21.747584261119243 26.042788894195922)"><path d="M-33.22 22.66 C-35.32 30.88, -38.59 39.1, -41.5 50.61" stroke="#0000ff" stroke-width="1.5" fill="none"></path></g><g transform="translate(250.51392509835193 589.8655367014898) rotate(0 -21.747584261119243 26.042788894195922)"><path d="M-17.26 35.55 C-23.99 39.97, -31.89 44.45, -41.5 50.61" stroke="#0000ff" stroke-width="1.5" fill="none"></path></g></g><g transform="translate(166.13851311802154 592.286618243969) rotate(0 30.5 10)"><text x="0" y="14" font-family="Virgil, Segoe UI Emoji" font-size="16px" fill="#0000ff" text-anchor="start" style="white-space: pre;" direction="ltr">(dx, dy)</text></g><g transform="translate(572.0780742771295 144.7779474763686) rotate(0 285 62.5)"><text x="0" y="18" font-family="Virgil, Segoe UI Emoji" font-size="20px" fill="#000000" text-anchor="start" style="white-space: pre;" direction="ltr">The calibration procedure consists of</text><text x="0" y="43" font-family="Virgil, Segoe UI Emoji" font-size="20px" fill="#000000" text-anchor="start" style="white-space: pre;" direction="ltr">showing 5 points, as shown on the sketch.</text><text x="0" y="68" font-family="Virgil, Segoe UI Emoji" font-size="20px" fill="#000000" text-anchor="start" style="white-space: pre;" direction="ltr">The displacement vector coordinates (dx, dy)</text><text x="0" y="93" font-family="Virgil, Segoe UI Emoji" font-size="20px" fill="#000000" text-anchor="start" style="white-space: pre;" direction="ltr">are calculated for each dot and averaged to</text><text x="0" y="118" font-family="Virgil, Segoe UI Emoji" font-size="20px" fill="#000000" text-anchor="start" style="white-space: pre;" direction="ltr">obtain the final displacement vector coordinates (dx, dy).</text></g></svg>